<svg width="319" height="197" viewBox="0 0 319 197" fill="none" xmlns="http://www.w3.org/2000/svg">
<g filter="url(#filter0_d_2602_127)">
<rect x="20" y="10" width="279" height="157" rx="10" fill="white"/>
<rect x="20.5" y="10.5" width="278" height="156" rx="9.5" stroke="white"/>
</g>
<path d="M118.124 133H120.572L114.884 120.4H112.58L106.91 133H109.322L110.564 130.084H116.864L118.124 133ZM111.356 128.248L113.714 122.74L116.09 128.248H111.356ZM133.388 120.4V128.932L126.44 120.4H124.514V133H126.836V124.468L133.784 133H135.71V120.4H133.388ZM141.427 133H146.935C151.021 133 153.811 130.48 153.811 126.7C153.811 122.92 151.021 120.4 146.935 120.4H141.427V133ZM143.767 131.02V122.38H146.827C149.635 122.38 151.453 124.09 151.453 126.7C151.453 129.31 149.635 131.02 146.827 131.02H143.767ZM169.402 133L166.504 128.86C168.214 128.194 169.186 126.79 169.186 124.882C169.186 122.092 167.134 120.4 163.822 120.4H158.638V133H160.978V129.328H163.822C163.984 129.328 164.146 129.328 164.308 129.31L166.882 133H169.402ZM166.828 124.882C166.828 126.466 165.766 127.402 163.714 127.402H160.978V122.38H163.714C165.766 122.38 166.828 123.298 166.828 124.882ZM180.03 133.18C183.936 133.18 186.816 130.444 186.816 126.7C186.816 122.956 183.936 120.22 180.03 120.22C176.124 120.22 173.244 122.974 173.244 126.7C173.244 130.426 176.124 133.18 180.03 133.18ZM180.03 131.128C177.492 131.128 175.602 129.274 175.602 126.7C175.602 124.126 177.492 122.272 180.03 122.272C182.568 122.272 184.458 124.126 184.458 126.7C184.458 129.274 182.568 131.128 180.03 131.128ZM191.636 133H193.976V120.4H191.636V133ZM199.724 133H205.232C209.318 133 212.108 130.48 212.108 126.7C212.108 122.92 209.318 120.4 205.232 120.4H199.724V133ZM202.064 131.02V122.38H205.124C207.932 122.38 209.75 124.09 209.75 126.7C209.75 129.31 207.932 131.02 205.124 131.02H202.064Z" fill="#4C5768"/>
<g clip-path="url(#clip0_2602_127)">
<mask id="mask0_2602_127" style="mask-type:alpha" maskUnits="userSpaceOnUse" x="130" y="38" width="60" height="66">
<path d="M190 68.453C190 51.6357 176.567 38 160 38C143.433 38 130 51.6357 130 68.453C130 77.7011 134.066 85.9795 140.476 91.5613L136.876 97.8883V102.913C136.876 103.354 137.232 103.714 137.666 103.714C137.812 103.714 137.946 103.674 138.064 103.606L142.347 101.098L145.691 95.2236C149.942 97.5717 154.817 98.906 160 98.906C165.183 98.906 170.058 97.5717 174.313 95.2236L177.657 101.098L181.939 103.606C182.058 103.674 182.192 103.714 182.338 103.714C182.772 103.714 183.128 103.354 183.128 102.913V97.8883L179.528 91.5613C185.934 85.9795 190 77.7011 190 68.453V68.453Z" fill="white"/>
</mask>
<g mask="url(#mask0_2602_127)">
<path d="M160 98.9061C176.569 98.9061 190 85.2718 190 68.453C190 51.6343 176.569 38 160 38C143.431 38 130 51.6343 130 68.453C130 85.2718 143.431 98.9061 160 98.9061Z" fill="#45EF8A"/>
</g>
<mask id="mask1_2602_127" style="mask-type:alpha" maskUnits="userSpaceOnUse" x="130" y="38" width="60" height="66">
<path d="M190 68.453C190 51.6357 176.567 38 160 38C143.433 38 130 51.6357 130 68.453C130 77.7011 134.066 85.9795 140.476 91.5613L136.876 97.8883V102.913C136.876 103.354 137.232 103.714 137.666 103.714C137.812 103.714 137.946 103.674 138.064 103.606L142.347 101.098L145.691 95.2236C149.942 97.5717 154.817 98.906 160 98.906C165.183 98.906 170.058 97.5717 174.313 95.2236L177.657 101.098L181.939 103.606C182.058 103.674 182.192 103.714 182.338 103.714C182.772 103.714 183.128 103.354 183.128 102.913V97.8883L179.528 91.5613C185.934 85.9795 190 77.7011 190 68.453V68.453Z" fill="white"/>
</mask>
<g mask="url(#mask1_2602_127)">
<path d="M160 98.5053C176.437 98.5053 189.779 85.086 189.988 68.453H190C190 85.2703 176.567 98.906 160 98.906C143.433 98.906 130 85.2703 130 68.453H130.012C130.221 85.086 143.563 98.5053 160 98.5053Z" fill="#263238" fill-opacity="0.2"/>
</g>
<mask id="mask2_2602_127" style="mask-type:alpha" maskUnits="userSpaceOnUse" x="130" y="38" width="60" height="66">
<path d="M190 68.453C190 51.6357 176.567 38 160 38C143.433 38 130 51.6357 130 68.453C130 77.7011 134.066 85.9795 140.476 91.5613L136.876 97.8883V102.913C136.876 103.354 137.232 103.714 137.666 103.714C137.812 103.714 137.946 103.674 138.064 103.606L142.347 101.098L145.691 95.2236C149.942 97.5717 154.817 98.906 160 98.906C165.183 98.906 170.058 97.5717 174.313 95.2236L177.657 101.098L181.939 103.606C182.058 103.674 182.192 103.714 182.338 103.714C182.772 103.714 183.128 103.354 183.128 102.913V97.8883L179.528 91.5613C185.934 85.9795 190 77.7011 190 68.453V68.453Z" fill="white"/>
</mask>
<g mask="url(#mask2_2602_127)">
<path d="M160 38C143.433 38 130 51.6357 130 68.453H190C190 51.6357 176.567 38 160 38Z" fill="#3DDC84"/>
</g>
<mask id="mask3_2602_127" style="mask-type:alpha" maskUnits="userSpaceOnUse" x="130" y="38" width="60" height="66">
<path d="M190 68.453C190 51.6357 176.567 38 160 38C143.433 38 130 51.6357 130 68.453C130 77.7011 134.066 85.9795 140.476 91.5613L136.876 97.8883V102.913C136.876 103.354 137.232 103.714 137.666 103.714C137.812 103.714 137.946 103.674 138.064 103.606L142.347 101.098L145.691 95.2236C149.942 97.5717 154.817 98.906 160 98.906C165.183 98.906 170.058 97.5717 174.313 95.2236L177.657 101.098L181.939 103.606C182.058 103.674 182.192 103.714 182.338 103.714C182.772 103.714 183.128 103.354 183.128 102.913V97.8883L179.528 91.5613C185.934 85.9795 190 77.7011 190 68.453V68.453Z" fill="white"/>
</mask>
<g mask="url(#mask3_2602_127)">
<path d="M160 67.6517C162.18 67.6517 163.947 65.8577 163.947 63.6447C163.947 61.4317 162.18 59.6377 160 59.6377C157.82 59.6377 156.053 61.4317 156.053 63.6447C156.053 65.8577 157.82 67.6517 160 67.6517Z" fill="#3DDC84"/>
</g>
<mask id="mask4_2602_127" style="mask-type:alpha" maskUnits="userSpaceOnUse" x="130" y="38" width="60" height="66">
<path d="M190 68.453C190 51.6357 176.567 38 160 38C143.433 38 130 51.6357 130 68.453C130 77.7011 134.066 85.9795 140.476 91.5613L136.876 97.8883V102.913C136.876 103.354 137.232 103.714 137.666 103.714C137.812 103.714 137.946 103.674 138.064 103.606L142.347 101.098L145.691 95.2236C149.942 97.5717 154.817 98.906 160 98.906C165.183 98.906 170.058 97.5717 174.313 95.2236L177.657 101.098L181.939 103.606C182.058 103.674 182.192 103.714 182.338 103.714C182.772 103.714 183.128 103.354 183.128 102.913V97.8883L179.528 91.5613C185.934 85.9795 190 77.7011 190 68.453V68.453Z" fill="white"/>
</mask>
<g mask="url(#mask4_2602_127)">
<path d="M190 68.4531H130V68.0524H190V68.4531Z" fill="#263238" fill-opacity="0.05"/>
</g>
<mask id="mask5_2602_127" style="mask-type:alpha" maskUnits="userSpaceOnUse" x="130" y="38" width="60" height="66">
<path d="M190 68.453C190 51.6357 176.567 38 160 38C143.433 38 130 51.6357 130 68.453C130 77.7011 134.066 85.9795 140.476 91.5613L136.876 97.8883V102.913C136.876 103.354 137.232 103.714 137.666 103.714C137.812 103.714 137.946 103.674 138.064 103.606L142.347 101.098L145.691 95.2236C149.942 97.5717 154.817 98.906 160 98.906C165.183 98.906 170.058 97.5717 174.313 95.2236L177.657 101.098L181.939 103.606C182.058 103.674 182.192 103.714 182.338 103.714C182.772 103.714 183.128 103.354 183.128 102.913V97.8883L179.528 91.5613C185.934 85.9795 190 77.7011 190 68.453V68.453Z" fill="white"/>
</mask>
<g mask="url(#mask5_2602_127)">
<path d="M190 68.8537H130V68.453H190V68.8537Z" fill="white" fill-opacity="0.05"/>
</g>
<mask id="mask6_2602_127" style="mask-type:alpha" maskUnits="userSpaceOnUse" x="130" y="38" width="60" height="66">
<path d="M190 68.453C190 51.6357 176.567 38 160 38C143.433 38 130 51.6357 130 68.453C130 77.7011 134.066 85.9795 140.476 91.5613L136.876 97.8883V102.913C136.876 103.354 137.232 103.714 137.666 103.714C137.812 103.714 137.946 103.674 138.064 103.606L142.347 101.098L145.691 95.2236C149.942 97.5717 154.817 98.906 160 98.906C165.183 98.906 170.058 97.5717 174.313 95.2236L177.657 101.098L181.939 103.606C182.058 103.674 182.192 103.714 182.338 103.714C182.772 103.714 183.128 103.354 183.128 102.913V97.8883L179.528 91.5613C185.934 85.9795 190 77.7011 190 68.453V68.453Z" fill="white"/>
</mask>
<g mask="url(#mask6_2602_127)">
<path d="M153.617 68.453L137.666 103.714H190V76.467L163.158 49.2195L156.842 54.0279L153.617 68.453Z" fill="url(#paint0_linear_2602_127)"/>
</g>
<mask id="mask7_2602_127" style="mask-type:alpha" maskUnits="userSpaceOnUse" x="130" y="38" width="60" height="66">
<path d="M190 68.453C190 51.6357 176.567 38 160 38C143.433 38 130 51.6357 130 68.453C130 77.7011 134.066 85.9795 140.476 91.5613L136.876 97.8883V102.913C136.876 103.354 137.232 103.714 137.666 103.714C137.812 103.714 137.946 103.674 138.064 103.606L142.347 101.098L145.691 95.2236C149.942 97.5717 154.817 98.906 160 98.906C165.183 98.906 170.058 97.5717 174.313 95.2236L177.657 101.098L181.939 103.606C182.058 103.674 182.192 103.714 182.338 103.714C182.772 103.714 183.128 103.354 183.128 102.913V97.8883L179.528 91.5613C185.934 85.9795 190 77.7011 190 68.453V68.453Z" fill="white"/>
</mask>
<g mask="url(#mask7_2602_127)">
<path d="M160 38.4007C176.437 38.4007 189.779 51.8201 189.988 68.453H190C190 51.6357 176.567 38 160 38C143.433 38 130 51.6357 130 68.453H130.012C130.221 51.8201 143.563 38.4007 160 38.4007Z" fill="white" fill-opacity="0.2"/>
</g>
<mask id="mask8_2602_127" style="mask-type:alpha" maskUnits="userSpaceOnUse" x="130" y="38" width="60" height="66">
<path d="M190 68.453C190 51.6357 176.567 38 160 38C143.433 38 130 51.6357 130 68.453C130 77.7011 134.066 85.9795 140.476 91.5613L136.876 97.8883V102.913C136.876 103.354 137.232 103.714 137.666 103.714C137.812 103.714 137.946 103.674 138.064 103.606L142.347 101.098L145.691 95.2236C149.942 97.5717 154.817 98.906 160 98.906C165.183 98.906 170.058 97.5717 174.313 95.2236L177.657 101.098L181.939 103.606C182.058 103.674 182.192 103.714 182.338 103.714C182.772 103.714 183.128 103.354 183.128 102.913V97.8883L179.528 91.5613C185.934 85.9795 190 77.7011 190 68.453V68.453Z" fill="white"/>
</mask>
<g mask="url(#mask8_2602_127)">
<path d="M166.383 68.453H159.088L177.657 101.098L181.94 103.606C182.058 103.674 182.192 103.714 182.338 103.714C182.773 103.714 183.128 103.354 183.128 102.913V97.8883L166.383 68.453Z" fill="#D7EFFE"/>
<path opacity="0.3" d="M166.383 68.453H159.088L177.657 101.098L181.94 103.606C182.058 103.674 182.192 103.714 182.338 103.714C182.773 103.714 183.128 103.354 183.128 102.913V97.8883L166.383 68.453Z" fill="#BDBDBD"/>
<path d="M183.124 97.8883L166.383 68.453H166.154L183.124 98.289V97.8883Z" fill="white" fill-opacity="0.2"/>
<path d="M182.334 103.314C182.188 103.314 182.054 103.274 181.936 103.206L177.653 100.697L159.317 68.453H159.088L177.657 101.098L181.94 103.606C182.058 103.674 182.192 103.714 182.338 103.714C182.773 103.714 183.128 103.354 183.128 102.913V102.512C183.124 102.953 182.769 103.314 182.334 103.314Z" fill="#212121" fill-opacity="0.1"/>
</g>
<mask id="mask9_2602_127" style="mask-type:alpha" maskUnits="userSpaceOnUse" x="130" y="38" width="60" height="66">
<path d="M190 68.453C190 51.6357 176.567 38 160 38C143.433 38 130 51.6357 130 68.453C130 77.7011 134.066 85.9795 140.476 91.5613L136.876 97.8883V102.913C136.876 103.354 137.232 103.714 137.666 103.714C137.812 103.714 137.946 103.674 138.064 103.606L142.347 101.098L145.691 95.2236C149.942 97.5717 154.817 98.906 160 98.906C165.183 98.906 170.058 97.5717 174.313 95.2236L177.657 101.098L181.939 103.606C182.058 103.674 182.192 103.714 182.338 103.714C182.772 103.714 183.128 103.354 183.128 102.913V97.8883L179.528 91.5613C185.934 85.9795 190 77.7011 190 68.453V68.453Z" fill="white"/>
</mask>
<g mask="url(#mask9_2602_127)">
<path d="M175.79 68.453C175.79 77.3044 168.72 84.4809 160 84.4809C157.407 84.4809 154.959 83.8438 152.8 82.7178L160 70.0558L160.912 68.453H153.617L136.873 97.8883V102.913C136.873 103.354 137.228 103.714 137.662 103.714C137.808 103.714 137.942 103.674 138.061 103.606L142.344 101.098L149.638 88.2755C152.729 89.9424 156.254 90.8921 160 90.8921C172.209 90.8921 182.105 80.8466 182.105 68.453H175.79Z" fill="#D7EFFE"/>
<path d="M153.617 68.453L136.873 97.8883V98.289L153.846 68.453H153.617ZM160 84.4809C157.407 84.4809 154.959 83.8438 152.8 82.7178V83.1185C154.959 84.2445 157.407 84.8816 160 84.8816C168.72 84.8816 175.79 77.7051 175.79 68.8537H182.094C182.098 68.7215 182.105 68.5892 182.105 68.453H175.79C175.79 77.3044 168.72 84.4809 160 84.4809Z" fill="white" fill-opacity="0.4"/>
<path d="M160.912 68.453H160.683L152.796 82.3171V82.7178L160.912 68.453ZM182.094 68.453C181.88 80.6583 172.075 90.4914 160 90.4914C156.254 90.4914 152.729 89.5417 149.638 87.8748L142.344 100.697L138.061 103.206C137.942 103.274 137.808 103.314 137.662 103.314C137.228 103.314 136.873 102.953 136.873 102.512V102.913C136.873 103.354 137.228 103.714 137.662 103.714C137.808 103.714 137.942 103.674 138.061 103.606L142.344 101.098L149.638 88.2755C152.729 89.9424 156.254 90.8921 160 90.8921C172.209 90.8921 182.105 80.8466 182.105 68.453H182.094Z" fill="#212121" fill-opacity="0.1"/>
</g>
<mask id="mask10_2602_127" style="mask-type:alpha" maskUnits="userSpaceOnUse" x="130" y="38" width="60" height="66">
<path d="M190 68.453C190 51.6357 176.567 38 160 38C143.433 38 130 51.6357 130 68.453C130 77.7011 134.066 85.9795 140.476 91.5613L136.876 97.8883V102.913C136.876 103.354 137.232 103.714 137.666 103.714C137.812 103.714 137.946 103.674 138.064 103.606L142.347 101.098L145.691 95.2236C149.942 97.5717 154.817 98.906 160 98.906C165.183 98.906 170.058 97.5717 174.313 95.2236L177.657 101.098L181.939 103.606C182.058 103.674 182.192 103.714 182.338 103.714C182.772 103.714 183.128 103.354 183.128 102.913V97.8883L179.528 91.5613C185.934 85.9795 190 77.7011 190 68.453V68.453Z" fill="white"/>
</mask>
<g mask="url(#mask10_2602_127)">
<path d="M167.105 54.0279H163.158V49.2195H156.842V54.0279H152.895C151.592 54.0279 150.526 55.1098 150.526 56.4321V68.453L158.326 76.3628C158.757 76.7956 159.345 77.068 160 77.068C160.655 77.068 161.247 76.7996 161.674 76.3628L169.474 68.453V56.4321C169.474 55.1098 168.408 54.0279 167.105 54.0279V54.0279ZM160 67.6516C157.821 67.6516 156.053 65.8565 156.053 63.6447C156.053 61.4328 157.821 59.6377 160 59.6377C162.179 59.6377 163.947 61.4328 163.947 63.6447C163.947 65.8565 162.179 67.6516 160 67.6516Z" fill="#073042"/>
</g>
<mask id="mask11_2602_127" style="mask-type:alpha" maskUnits="userSpaceOnUse" x="130" y="38" width="60" height="66">
<path d="M190 68.453C190 51.6357 176.567 38 160 38C143.433 38 130 51.6357 130 68.453C130 77.7011 134.066 85.9795 140.476 91.5613L136.876 97.8883V102.913C136.876 103.354 137.232 103.714 137.666 103.714C137.812 103.714 137.946 103.674 138.064 103.606L142.347 101.098L145.691 95.2236C149.942 97.5717 154.817 98.906 160 98.906C165.183 98.906 170.058 97.5717 174.313 95.2236L177.657 101.098L181.939 103.606C182.058 103.674 182.192 103.714 182.338 103.714C182.772 103.714 183.128 103.354 183.128 102.913V97.8883L179.528 91.5613C185.934 85.9795 190 77.7011 190 68.453V68.453Z" fill="white"/>
</mask>
<g mask="url(#mask11_2602_127)">
<path d="M167.105 54.0279H163.158V54.4286H167.105C168.408 54.4286 169.474 55.5105 169.474 56.8328V56.4321C169.474 55.1098 168.408 54.0279 167.105 54.0279V54.0279ZM163.158 49.2195H156.842V49.6202H163.158V49.2195ZM156.842 54.0279H152.895C151.592 54.0279 150.526 55.1098 150.526 56.4321V56.8328C150.526 55.5105 151.592 54.4286 152.895 54.4286H156.842V54.0279ZM160 67.6516C157.821 67.6516 156.053 65.8565 156.053 63.6447V64.0454C156.053 66.2572 157.821 68.0523 160 68.0523C162.179 68.0523 163.947 66.2572 163.947 64.0454V63.6447C163.947 65.8565 162.179 67.6516 160 67.6516Z" fill="white" fill-opacity="0.1"/>
</g>
<mask id="mask12_2602_127" style="mask-type:alpha" maskUnits="userSpaceOnUse" x="130" y="38" width="60" height="66">
<path d="M190 68.453C190 51.6357 176.567 38 160 38C143.433 38 130 51.6357 130 68.453C130 77.7011 134.066 85.9795 140.476 91.5613L136.876 97.8883V102.913C136.876 103.354 137.232 103.714 137.666 103.714C137.812 103.714 137.946 103.674 138.064 103.606L142.347 101.098L145.691 95.2236C149.942 97.5717 154.817 98.906 160 98.906C165.183 98.906 170.058 97.5717 174.313 95.2236L177.657 101.098L181.939 103.606C182.058 103.674 182.192 103.714 182.338 103.714C182.772 103.714 183.128 103.354 183.128 102.913V97.8883L179.528 91.5613C185.934 85.9795 190 77.7011 190 68.453V68.453Z" fill="white"/>
</mask>
<g mask="url(#mask12_2602_127)">
<path d="M160 59.6377C162.179 59.6377 163.947 61.4328 163.947 63.6447V63.244C163.947 61.0321 162.179 59.237 160 59.237C157.821 59.237 156.053 61.0321 156.053 63.244V63.6447C156.053 61.4328 157.821 59.6377 160 59.6377ZM161.674 75.9621C161.243 76.3949 160.655 76.6674 160 76.6674C159.345 76.6674 158.753 76.3989 158.326 75.9621L150.526 68.0524V68.453L158.326 76.3628C158.757 76.7956 159.345 77.0681 160 77.0681C160.655 77.0681 161.247 76.7996 161.674 76.3628L169.474 68.453V68.0524L161.674 75.9621Z" fill="#212121" fill-opacity="0.1"/>
</g>
<path d="M190 68.453C190 51.6357 176.567 38 160 38C143.433 38 130 51.6357 130 68.453C130 77.7011 134.066 85.9795 140.476 91.5613L136.876 97.8883V102.913C136.876 103.354 137.232 103.714 137.666 103.714C137.812 103.714 137.946 103.674 138.064 103.606L142.347 101.098L145.691 95.2237C149.942 97.5717 154.817 98.9061 160 98.9061C165.183 98.9061 170.058 97.5717 174.313 95.2237L177.657 101.098L181.939 103.606C182.058 103.674 182.192 103.714 182.338 103.714C182.772 103.714 183.128 103.354 183.128 102.913V97.8883L179.528 91.5613C185.934 85.9795 190 77.7011 190 68.453V68.453Z" fill="url(#paint1_radial_2602_127)"/>
</g>
<defs>
<filter id="filter0_d_2602_127" x="0" y="0" width="319" height="197" filterUnits="userSpaceOnUse" color-interpolation-filters="sRGB">
<feFlood flood-opacity="0" result="BackgroundImageFix"/>
<feColorMatrix in="SourceAlpha" type="matrix" values="0 0 0 0 0 0 0 0 0 0 0 0 0 0 0 0 0 0 127 0" result="hardAlpha"/>
<feOffset dy="10"/>
<feGaussianBlur stdDeviation="10"/>
<feComposite in2="hardAlpha" operator="out"/>
<feColorMatrix type="matrix" values="0 0 0 0 0 0 0 0 0 0 0 0 0 0 0 0 0 0 0.1 0"/>
<feBlend mode="normal" in2="BackgroundImageFix" result="effect1_dropShadow_2602_127"/>
<feBlend mode="normal" in="SourceGraphic" in2="effect1_dropShadow_2602_127" result="shape"/>
</filter>
<linearGradient id="paint0_linear_2602_127" x1="153.037" y1="77.6382" x2="181.557" y2="93.3692" gradientUnits="userSpaceOnUse">
<stop stop-color="#263238" stop-opacity="0.2"/>
<stop offset="1" stop-color="#263238" stop-opacity="0.02"/>
</linearGradient>
<radialGradient id="paint1_radial_2602_127" cx="0" cy="0" r="1" gradientUnits="userSpaceOnUse" gradientTransform="translate(138.826 46.8919) scale(71.1016 77.8733)">
<stop stop-color="white" stop-opacity="0.1"/>
<stop offset="1" stop-color="white" stop-opacity="0"/>
</radialGradient>
<clipPath id="clip0_2602_127">
<rect width="60" height="65.7143" fill="white" transform="translate(130 38)"/>
</clipPath>
</defs>
</svg>
