<svg width="319" height="197" viewBox="0 0 319 197" fill="none" xmlns="http://www.w3.org/2000/svg">
<g filter="url(#filter0_d_2614_201)">
<rect x="20" y="10" width="279" height="157" rx="10" fill="white"/>
<rect x="20.5" y="10.5" width="278" height="156" rx="9.5" stroke="white"/>
</g>
<path d="M114.834 126.196H121.116V128.176H114.834V126.196ZM115.032 133H112.692V120.4H121.89V122.362H115.032V133ZM126.493 133V120.4H128.833V131.02H135.421V133H126.493ZM144.851 133.18C143.123 133.18 141.767 132.694 140.783 131.722C139.811 130.75 139.325 129.346 139.325 127.51V120.4H141.665V127.42C141.665 128.716 141.941 129.658 142.493 130.246C143.057 130.834 143.849 131.128 144.869 131.128C145.889 131.128 146.675 130.834 147.227 130.246C147.779 129.658 148.055 128.716 148.055 127.42V120.4H150.359V127.51C150.359 129.346 149.867 130.75 148.883 131.722C147.911 132.694 146.567 133.18 144.851 133.18ZM158.303 133V122.38H154.127V120.4H164.819V122.38H160.643V133H158.303ZM171.647 133V122.38H167.471V120.4H178.163V122.38H173.987V133H171.647ZM184.419 125.638H190.683V127.564H184.419V125.638ZM184.599 131.038H191.709V133H182.259V120.4H191.457V122.362H184.599V131.038ZM196.658 133V120.4H201.842C202.958 120.4 203.912 120.58 204.704 120.94C205.508 121.3 206.126 121.816 206.558 122.488C206.99 123.16 207.206 123.958 207.206 124.882C207.206 125.806 206.99 126.604 206.558 127.276C206.126 127.936 205.508 128.446 204.704 128.806C203.912 129.154 202.958 129.328 201.842 129.328H197.954L198.998 128.266V133H196.658ZM204.902 133L201.716 128.428H204.218L207.422 133H204.902ZM198.998 128.518L197.954 127.402H201.734C202.766 127.402 203.54 127.18 204.056 126.736C204.584 126.292 204.848 125.674 204.848 124.882C204.848 124.078 204.584 123.46 204.056 123.028C203.54 122.596 202.766 122.38 201.734 122.38H197.954L198.998 121.228V128.518Z" fill="#4C5768"/>
<path fill-rule="evenodd" clip-rule="evenodd" d="M165.146 95.9998L149.029 80.139L157.938 71.1614L183.066 95.9998H165.146Z" fill="#02539A"/>
<path fill-rule="evenodd" clip-rule="evenodd" d="M148.83 80.1514L164.807 64.3267H182.768L157.913 88.9442L148.83 80.1514Z" fill="#45D1FD" fill-opacity="0.85"/>
<path fill-rule="evenodd" clip-rule="evenodd" d="M135 66.349L144.071 75.3272L182.768 37H164.713L135 66.349Z" fill="#45D1FD"/>
<defs>
<filter id="filter0_d_2614_201" x="0" y="0" width="319" height="197" filterUnits="userSpaceOnUse" color-interpolation-filters="sRGB">
<feFlood flood-opacity="0" result="BackgroundImageFix"/>
<feColorMatrix in="SourceAlpha" type="matrix" values="0 0 0 0 0 0 0 0 0 0 0 0 0 0 0 0 0 0 127 0" result="hardAlpha"/>
<feOffset dy="10"/>
<feGaussianBlur stdDeviation="10"/>
<feComposite in2="hardAlpha" operator="out"/>
<feColorMatrix type="matrix" values="0 0 0 0 0 0 0 0 0 0 0 0 0 0 0 0 0 0 0.1 0"/>
<feBlend mode="normal" in2="BackgroundImageFix" result="effect1_dropShadow_2614_201"/>
<feBlend mode="normal" in="SourceGraphic" in2="effect1_dropShadow_2614_201" result="shape"/>
</filter>
</defs>
</svg>
