<svg width="319" height="197" viewBox="0 0 319 197" fill="none" xmlns="http://www.w3.org/2000/svg">
<g filter="url(#filter0_d_2613_196)">
<rect x="20" y="10" width="279" height="157" rx="10" fill="white"/>
<rect x="20.5" y="10.5" width="278" height="156" rx="9.5" stroke="white"/>
</g>
<path d="M142.692 133V120.4H145.032V133H142.692ZM156.684 133.18C155.7 133.18 154.794 133.018 153.966 132.694C153.138 132.37 152.418 131.92 151.806 131.344C151.194 130.756 150.72 130.072 150.384 129.292C150.048 128.5 149.88 127.636 149.88 126.7C149.88 125.764 150.048 124.906 150.384 124.126C150.72 123.334 151.194 122.65 151.806 122.074C152.418 121.486 153.138 121.03 153.966 120.706C154.794 120.382 155.694 120.22 156.666 120.22C157.65 120.22 158.55 120.382 159.366 120.706C160.194 121.03 160.914 121.486 161.526 122.074C162.138 122.65 162.612 123.334 162.948 124.126C163.284 124.906 163.452 125.764 163.452 126.7C163.452 127.636 163.284 128.5 162.948 129.292C162.612 130.084 162.138 130.768 161.526 131.344C160.914 131.92 160.194 132.37 159.366 132.694C158.55 133.018 157.656 133.18 156.684 133.18ZM156.666 131.128C157.302 131.128 157.89 131.02 158.43 130.804C158.97 130.588 159.438 130.282 159.834 129.886C160.23 129.478 160.536 129.01 160.752 128.482C160.98 127.942 161.094 127.348 161.094 126.7C161.094 126.052 160.98 125.464 160.752 124.936C160.536 124.396 160.23 123.928 159.834 123.532C159.438 123.124 158.97 122.812 158.43 122.596C157.89 122.38 157.302 122.272 156.666 122.272C156.03 122.272 155.442 122.38 154.902 122.596C154.374 122.812 153.906 123.124 153.498 123.532C153.102 123.928 152.79 124.396 152.562 124.936C152.346 125.464 152.238 126.052 152.238 126.7C152.238 127.336 152.346 127.924 152.562 128.464C152.79 129.004 153.102 129.478 153.498 129.886C153.894 130.282 154.362 130.588 154.902 130.804C155.442 131.02 156.03 131.128 156.666 131.128ZM172.178 133.18C171.194 133.18 170.252 133.042 169.352 132.766C168.452 132.478 167.738 132.112 167.21 131.668L168.02 129.85C168.524 130.246 169.148 130.576 169.892 130.84C170.636 131.104 171.398 131.236 172.178 131.236C172.838 131.236 173.372 131.164 173.78 131.02C174.188 130.876 174.488 130.684 174.68 130.444C174.872 130.192 174.968 129.91 174.968 129.598C174.968 129.214 174.83 128.908 174.554 128.68C174.278 128.44 173.918 128.254 173.474 128.122C173.042 127.978 172.556 127.846 172.016 127.726C171.488 127.606 170.954 127.468 170.414 127.312C169.886 127.144 169.4 126.934 168.956 126.682C168.524 126.418 168.17 126.07 167.894 125.638C167.618 125.206 167.48 124.654 167.48 123.982C167.48 123.298 167.66 122.674 168.02 122.11C168.392 121.534 168.95 121.078 169.694 120.742C170.45 120.394 171.404 120.22 172.556 120.22C173.312 120.22 174.062 120.316 174.806 120.508C175.55 120.7 176.198 120.976 176.75 121.336L176.012 123.154C175.448 122.818 174.866 122.572 174.266 122.416C173.666 122.248 173.09 122.164 172.538 122.164C171.89 122.164 171.362 122.242 170.954 122.398C170.558 122.554 170.264 122.758 170.072 123.01C169.892 123.262 169.802 123.55 169.802 123.874C169.802 124.258 169.934 124.57 170.198 124.81C170.474 125.038 170.828 125.218 171.26 125.35C171.704 125.482 172.196 125.614 172.736 125.746C173.276 125.866 173.81 126.004 174.338 126.16C174.878 126.316 175.364 126.52 175.796 126.772C176.24 127.024 176.594 127.366 176.858 127.798C177.134 128.23 177.272 128.776 177.272 129.436C177.272 130.108 177.086 130.732 176.714 131.308C176.354 131.872 175.796 132.328 175.04 132.676C174.284 133.012 173.33 133.18 172.178 133.18Z" fill="#4C5768"/>
<g clip-path="url(#clip0_2613_196)">
<path d="M161.208 51.4999H161.45C164.495 50.8741 167.226 49.2026 169.168 46.7749C171.11 44.3473 172.141 41.3166 172.083 38.2082C172.082 38.0267 172.041 37.8477 171.961 37.6846C171.882 37.5214 171.767 37.3783 171.624 37.2657C171.489 37.15 171.331 37.066 171.159 37.0199C170.988 36.9739 170.808 36.9671 170.633 36.9999C167.584 37.6264 164.85 39.3015 162.908 41.7342C160.965 44.1668 159.936 47.2033 160 50.3157C160 50.6362 160.127 50.9435 160.354 51.1701C160.58 51.3967 160.888 51.5241 161.208 51.5241V51.4999Z" fill="#303C42"/>
<path d="M183.369 76.9475C181.453 76.1625 179.815 74.8229 178.665 73.1006C177.516 71.3782 176.907 69.3516 176.917 67.2808C176.917 65.3987 177.41 63.5494 178.347 61.9171C179.284 60.2847 180.632 58.9262 182.258 57.9767C182.414 57.8865 182.548 57.7623 182.651 57.6133C182.753 57.4643 182.82 57.2943 182.848 57.1157C182.876 56.9372 182.864 56.7547 182.811 56.5816C182.759 56.4086 182.669 56.2494 182.548 56.1158C181.207 54.6772 179.589 53.5261 177.79 52.7326C175.991 51.9391 174.049 51.5197 172.083 51.5C170.134 51.542 168.212 51.9691 166.428 52.7567C164.783 53.4879 163.008 53.8823 161.208 53.9167C159.408 53.8823 157.633 53.4879 155.988 52.7567C154.205 51.9691 152.283 51.542 150.333 51.5C148.859 51.5 135.833 51.9833 135.833 68.4167C135.833 81.8533 145.017 95 150.333 95C152.674 95.0265 154.992 94.5398 157.124 93.5742C158.399 92.9556 159.792 92.6178 161.208 92.5833C162.625 92.6178 164.018 92.9556 165.293 93.5742C167.425 94.5398 169.743 95.0265 172.083 95C176.409 95 181.508 86.4692 184.167 78.47C184.215 78.3177 184.233 78.1573 184.219 77.998C184.205 77.8388 184.16 77.6838 184.086 77.5422C184.012 77.4006 183.91 77.2751 183.787 77.173C183.664 77.071 183.522 76.9943 183.369 76.9475V76.9475Z" fill="#303C42"/>
</g>
<defs>
<filter id="filter0_d_2613_196" x="0" y="0" width="319" height="197" filterUnits="userSpaceOnUse" color-interpolation-filters="sRGB">
<feFlood flood-opacity="0" result="BackgroundImageFix"/>
<feColorMatrix in="SourceAlpha" type="matrix" values="0 0 0 0 0 0 0 0 0 0 0 0 0 0 0 0 0 0 127 0" result="hardAlpha"/>
<feOffset dy="10"/>
<feGaussianBlur stdDeviation="10"/>
<feComposite in2="hardAlpha" operator="out"/>
<feColorMatrix type="matrix" values="0 0 0 0 0 0 0 0 0 0 0 0 0 0 0 0 0 0 0.1 0"/>
<feBlend mode="normal" in2="BackgroundImageFix" result="effect1_dropShadow_2613_196"/>
<feBlend mode="normal" in="SourceGraphic" in2="effect1_dropShadow_2613_196" result="shape"/>
</filter>
<clipPath id="clip0_2613_196">
<rect width="58" height="58" fill="white" transform="translate(131 37)"/>
</clipPath>
</defs>
</svg>
