<svg width="319" height="197" viewBox="0 0 319 197" fill="none" xmlns="http://www.w3.org/2000/svg">
<g filter="url(#filter0_d_2615_306)">
<rect x="20" y="10" width="279" height="157" rx="10" fill="white"/>
<rect x="20.5" y="10.5" width="278" height="156" rx="9.5" stroke="white"/>
</g>
<path d="M115.692 133H124.62V131.02H118.032V120.4H115.692V133ZM136.707 133H139.155L133.467 120.4H131.163L125.493 133H127.905L129.147 130.084H135.447L136.707 133ZM129.939 128.248L132.297 122.74L134.673 128.248H129.939ZM152.242 133L149.344 128.86C151.054 128.194 152.026 126.79 152.026 124.882C152.026 122.092 149.974 120.4 146.662 120.4H141.478V133H143.818V129.328H146.662C146.824 129.328 146.986 129.328 147.148 129.31L149.722 133H152.242ZM149.668 124.882C149.668 126.466 148.606 127.402 146.554 127.402H143.818V122.38H146.554C148.606 122.38 149.668 123.298 149.668 124.882ZM164.796 133H167.244L161.556 120.4H159.252L153.582 133H155.994L157.236 130.084H163.536L164.796 133ZM158.028 128.248L160.386 122.74L162.762 128.248H158.028ZM178.078 120.4L173.848 130.12L169.654 120.4H167.116L172.624 133H174.928L180.418 120.4H178.078ZM184.808 131.038V127.564H190.892V125.638H184.808V122.362H191.666V120.4H182.468V133H191.918V131.038H184.808ZM195.246 133H204.174V131.02H197.586V120.4H195.246V133Z" fill="#4C5768"/>
<path fill-rule="evenodd" clip-rule="evenodd" d="M187.574 57.1831C187.595 57.2607 187.605 57.3408 187.606 57.4213V69.9294C187.606 70.0899 187.563 70.2476 187.483 70.3866C187.402 70.5255 187.287 70.6407 187.147 70.7206L176.649 76.7648V88.7451C176.649 89.0711 176.476 89.3721 176.193 89.5363L154.279 102.151C154.229 102.18 154.174 102.198 154.119 102.218C154.099 102.224 154.079 102.237 154.058 102.243C153.904 102.283 153.743 102.283 153.59 102.243C153.565 102.236 153.542 102.222 153.518 102.213C153.468 102.195 153.416 102.179 153.368 102.151L131.458 89.5363C131.319 89.4563 131.203 89.3411 131.123 89.2022C131.043 89.0633 131 88.9056 131 88.7451V51.2209C131 51.1388 131.011 51.059 131.032 50.9815C131.039 50.9552 131.055 50.9313 131.064 50.9051C131.081 50.8572 131.097 50.8082 131.122 50.7637C131.139 50.7341 131.164 50.7101 131.185 50.6828C131.211 50.6463 131.235 50.6087 131.266 50.5768C131.292 50.5505 131.326 50.5312 131.356 50.5084C131.389 50.481 131.418 50.4514 131.456 50.4297H131.457L142.413 44.1221C142.551 44.0423 142.708 44.0002 142.869 44.0002C143.029 44.0002 143.186 44.0423 143.325 44.1221L154.28 50.4297H154.282C154.319 50.4525 154.349 50.481 154.383 50.5072C154.412 50.53 154.445 50.5505 154.471 50.5756C154.503 50.6087 154.526 50.6463 154.554 50.6828C154.573 50.7101 154.599 50.7341 154.615 50.7637C154.641 50.8093 154.656 50.8572 154.674 50.9051C154.683 50.9313 154.699 50.9552 154.706 50.9826C154.727 51.0603 154.738 51.1404 154.738 51.2209V74.6581L163.867 69.4016V57.4202C163.867 57.3404 163.879 57.2594 163.899 57.1831C163.907 57.1557 163.922 57.1318 163.931 57.1055C163.949 57.0577 163.965 57.0086 163.99 56.9642C164.008 56.9345 164.033 56.9106 164.052 56.8832C164.079 56.8468 164.102 56.8091 164.134 56.7772C164.16 56.751 164.193 56.7316 164.223 56.7088C164.257 56.6815 164.287 56.6518 164.323 56.6302H164.324L175.281 50.3225C175.42 50.2426 175.577 50.2005 175.737 50.2005C175.897 50.2005 176.054 50.2426 176.193 50.3225L187.148 56.6302C187.187 56.653 187.217 56.6815 187.251 56.7077C187.28 56.7305 187.313 56.751 187.339 56.7761C187.371 56.8091 187.394 56.8468 187.421 56.8832C187.441 56.9106 187.466 56.9345 187.482 56.9642C187.509 57.0086 187.523 57.0577 187.542 57.1055C187.552 57.1318 187.567 57.1557 187.574 57.1831V57.1831ZM185.779 69.4016V59.0002L181.945 61.2073L176.649 64.2568V74.6581L185.78 69.4016H185.779ZM174.824 88.2173V77.8091L169.614 80.7845L154.737 89.2752V99.7814L174.824 88.2173ZM132.826 52.7998V88.2173L152.911 99.7803V89.2763L142.418 83.3381L142.415 83.3358L142.41 83.3335C142.375 83.313 142.345 83.2834 142.312 83.2583C142.284 83.2355 142.251 83.2172 142.226 83.1922L142.223 83.1887C142.194 83.1602 142.173 83.1249 142.148 83.093C142.125 83.0622 142.098 83.036 142.08 83.0041L142.079 83.0006C142.058 82.9664 142.045 82.9254 142.031 82.8866C142.016 82.8524 141.996 82.8205 141.987 82.784V82.7829C141.976 82.7396 141.974 82.694 141.969 82.6495C141.965 82.6153 141.955 82.5811 141.955 82.5469V82.5446V58.0563L136.66 55.0057L132.826 52.8009V52.7998ZM142.87 45.9666L133.742 51.2209L142.867 56.4751L151.994 51.2197L142.867 45.9666H142.87ZM147.617 78.7576L152.912 75.7092V52.7998L149.078 55.0068L143.782 58.0563V80.9657L147.617 78.7576ZM175.737 52.1671L166.61 57.4213L175.737 62.6756L184.863 57.4202L175.737 52.1671V52.1671ZM174.824 64.2568L169.527 61.2073L165.694 59.0002V69.4016L170.989 72.4499L174.824 74.6581V64.2568ZM153.823 87.6963L167.21 80.0537L173.902 76.2347L164.782 70.9839L154.281 77.0293L144.711 82.5389L153.823 87.6963V87.6963Z" fill="#FF2D20"/>
<defs>
<filter id="filter0_d_2615_306" x="0" y="0" width="319" height="197" filterUnits="userSpaceOnUse" color-interpolation-filters="sRGB">
<feFlood flood-opacity="0" result="BackgroundImageFix"/>
<feColorMatrix in="SourceAlpha" type="matrix" values="0 0 0 0 0 0 0 0 0 0 0 0 0 0 0 0 0 0 127 0" result="hardAlpha"/>
<feOffset dy="10"/>
<feGaussianBlur stdDeviation="10"/>
<feComposite in2="hardAlpha" operator="out"/>
<feColorMatrix type="matrix" values="0 0 0 0 0 0 0 0 0 0 0 0 0 0 0 0 0 0 0.1 0"/>
<feBlend mode="normal" in2="BackgroundImageFix" result="effect1_dropShadow_2615_306"/>
<feBlend mode="normal" in="SourceGraphic" in2="effect1_dropShadow_2615_306" result="shape"/>
</filter>
</defs>
</svg>
