<svg width="319" height="197" viewBox="0 0 319 197" fill="none" xmlns="http://www.w3.org/2000/svg">
<g filter="url(#filter0_d_2603_90)">
<rect x="20" y="10" width="279" height="157" rx="10" fill="white"/>
<rect x="20.5" y="10.5" width="278" height="156" rx="9.5" stroke="white"/>
</g>
<path d="M121.566 124.4V132.932L114.618 124.4H112.692V137H115.014V128.468L121.962 137H123.888V124.4H121.566ZM135.49 137.18C139.396 137.18 142.276 134.444 142.276 130.7C142.276 126.956 139.396 124.22 135.49 124.22C131.584 124.22 128.704 126.974 128.704 130.7C128.704 134.426 131.584 137.18 135.49 137.18ZM135.49 135.128C132.952 135.128 131.062 133.274 131.062 130.7C131.062 128.126 132.952 126.272 135.49 126.272C138.028 126.272 139.918 128.126 139.918 130.7C139.918 133.274 138.028 135.128 135.49 135.128ZM147.097 137H152.605C156.691 137 159.481 134.48 159.481 130.7C159.481 126.92 156.691 124.4 152.605 124.4H147.097V137ZM149.437 135.02V126.38H152.497C155.305 126.38 157.123 128.09 157.123 130.7C157.123 133.31 155.305 135.02 152.497 135.02H149.437ZM166.648 135.038V131.564H172.732V129.638H166.648V126.362H173.506V124.4H164.308V137H173.758V135.038H166.648ZM179.386 137.126C180.196 137.126 180.862 136.496 180.862 135.632C180.862 134.732 180.196 134.138 179.386 134.138C178.576 134.138 177.91 134.732 177.91 135.632C177.91 136.496 178.576 137.126 179.386 137.126ZM188.563 137.18C191.335 137.18 192.811 135.722 192.811 132.752V124.4H185.989V126.362H190.471V132.878C190.471 134.426 189.805 135.2 188.509 135.2C187.519 135.2 186.691 134.696 186.007 133.76L184.675 135.362C185.539 136.532 186.979 137.18 188.563 137.18ZM202.339 137.18C205.795 137.18 207.433 135.452 207.433 133.436C207.433 128.81 199.963 130.556 199.963 127.874C199.963 126.92 200.755 126.164 202.699 126.164C203.797 126.164 205.039 126.488 206.173 127.154L206.911 125.336C205.813 124.616 204.229 124.22 202.717 124.22C199.261 124.22 197.641 125.948 197.641 127.982C197.641 132.662 205.129 130.88 205.129 133.598C205.129 134.534 204.301 135.236 202.339 135.236C200.791 135.236 199.189 134.66 198.181 133.85L197.371 135.668C198.415 136.568 200.377 137.18 202.339 137.18Z" fill="#4C5768"/>
<path d="M158.558 101.269C158.241 101.269 157.925 101.193 157.634 101.042L154.733 99.4067C154.311 99.1802 154.522 99.1047 154.654 99.0543C155.234 98.853 155.34 98.8279 155.973 98.4756C156.025 98.4504 156.131 98.4504 156.184 98.5007L158.426 99.759C158.505 99.8093 158.61 99.8093 158.69 99.759L167.394 94.9776C167.473 94.9273 167.526 94.8518 167.526 94.7511V85.1884C167.526 85.0878 167.473 85.0123 167.394 84.9619L158.716 80.1806C158.637 80.1302 158.531 80.1302 158.452 80.1806L149.774 84.9619C149.695 85.0123 149.642 85.0878 149.642 85.1884V94.7511C149.642 94.8518 149.695 94.9273 149.774 94.9776L152.148 96.2862C153.441 96.9153 154.232 96.1855 154.232 95.4557V85.9685C154.232 85.8427 154.337 85.742 154.496 85.742H155.603C155.735 85.742 155.841 85.8427 155.841 85.9685V95.4306C155.841 97.0663 154.891 98.0226 153.256 98.0226C152.755 98.0226 152.359 98.0226 151.251 97.4941L148.983 96.2359C148.429 95.9339 148.06 95.3551 148.06 94.726V85.1632C148.06 84.5341 148.403 83.9553 148.983 83.6533L157.687 78.872C158.241 78.57 158.98 78.57 159.507 78.872L168.212 83.6533C168.766 83.9553 169.135 84.5341 169.135 85.1632V94.726C169.135 95.3551 168.792 95.9339 168.212 96.2359L159.507 101.017C159.191 101.168 158.874 101.269 158.558 101.269Z" fill="#689F63"/>
<path d="M161.248 94.6758C157.45 94.6758 156.659 93.0149 156.659 91.6057C156.659 91.4799 156.764 91.3792 156.922 91.3792H158.057C158.188 91.3792 158.294 91.4547 158.294 91.5805C158.452 92.6626 158.98 93.2162 161.275 93.2162C163.095 93.2162 163.886 92.8136 163.886 91.8825C163.886 91.354 163.675 90.9514 160.826 90.6746C158.452 90.4481 156.975 89.9448 156.975 88.1329C156.975 86.4469 158.452 85.4654 160.932 85.4654C163.728 85.4654 165.099 86.3965 165.257 88.3594C165.257 88.4349 165.231 88.4852 165.178 88.5356C165.126 88.5859 165.073 88.6111 164.994 88.6111H163.859C163.754 88.6111 163.648 88.5356 163.622 88.4349C163.358 87.2773 162.699 86.925 160.905 86.925C158.901 86.925 158.663 87.5793 158.663 88.0826C158.663 88.6865 158.927 88.8627 161.644 89.215C164.308 89.5422 165.574 90.0203 165.574 91.8322C165.574 93.6441 163.991 94.6758 161.248 94.6758ZM171.825 84.5343H172.115C172.353 84.5343 172.406 84.3833 172.406 84.2827C172.406 84.031 172.221 84.031 172.142 84.031H171.852L171.825 84.5343ZM171.456 83.729H172.115C172.326 83.729 172.775 83.729 172.775 84.2072C172.775 84.5343 172.564 84.6098 172.432 84.635C172.696 84.6601 172.696 84.8111 172.748 85.0376C172.775 85.1886 172.801 85.4403 172.854 85.5158H172.458C172.458 85.4403 172.379 84.9873 172.379 84.9621C172.353 84.8615 172.326 84.8111 172.195 84.8111H171.878V85.5409H171.509V83.729H171.456ZM170.691 84.635C170.691 85.3899 171.324 85.9687 172.089 85.9687C172.88 85.9687 173.487 85.3648 173.487 84.635C173.487 83.88 172.854 83.3012 172.089 83.3012C171.324 83.3012 170.691 83.88 170.691 84.635ZM173.777 84.635C173.777 85.5158 173.012 86.2455 172.089 86.2455C171.166 86.2455 170.401 85.5409 170.401 84.635C170.401 83.729 171.192 83.0244 172.089 83.0244C172.986 83.0496 173.777 83.729 173.777 84.635Z" fill="#689F63"/>
<path d="M131.627 63.7983C131.627 63.4208 131.416 63.0685 131.073 62.8672L121.867 57.809C121.709 57.7335 121.524 57.6832 121.366 57.658H121.261C121.076 57.658 120.918 57.7083 120.759 57.809L111.554 62.8672C111.211 63.0685 111 63.4208 111 63.7983L111.026 77.4377C111.026 77.639 111.132 77.8152 111.29 77.8907C111.448 77.9913 111.686 77.9913 111.844 77.8907L117.304 74.896C117.647 74.6947 117.858 74.3424 117.858 73.9649V67.5982C117.858 67.2207 118.069 66.8684 118.412 66.6671L120.733 65.3837C120.918 65.283 121.102 65.2327 121.287 65.2327C121.472 65.2327 121.683 65.283 121.841 65.3837L124.162 66.6671C124.505 66.8684 124.716 67.1955 124.716 67.5982V73.9649C124.716 74.3424 124.927 74.6947 125.27 74.896L130.756 77.8907C130.941 77.9913 131.152 77.9913 131.31 77.8907C131.468 77.79 131.574 77.6139 131.574 77.4377L131.627 63.7983ZM175.122 70.8948C175.122 70.9955 175.07 71.071 174.99 71.1213L171.825 72.8577C171.746 72.908 171.641 72.908 171.535 72.8577L168.37 71.1213C168.291 71.071 168.238 70.9955 168.238 70.8948V67.3969C168.238 67.2962 168.291 67.2207 168.37 67.1704L171.535 65.434C171.614 65.3837 171.72 65.3837 171.825 65.434L174.99 67.1704C175.07 67.2207 175.122 67.2962 175.122 67.3969V70.8948ZM175.993 45.0755C175.808 44.9748 175.597 44.9748 175.439 45.0755C175.281 45.1762 175.175 45.3523 175.175 45.5285V59.0421C175.175 59.1679 175.096 59.2937 174.99 59.3692C174.859 59.4447 174.727 59.4447 174.595 59.3692L172.274 58.111C171.931 57.9097 171.509 57.9097 171.166 58.111L161.934 63.1943C161.591 63.3956 161.38 63.7228 161.38 64.1003V74.2669C161.38 74.6444 161.591 74.9967 161.934 75.198L171.166 80.2814C171.509 80.4827 171.931 80.4827 172.274 80.2814L181.506 75.198C181.848 74.9967 182.059 74.6696 182.059 74.2669V48.9257C182.059 48.5483 181.848 48.196 181.479 47.9946L175.993 45.0755ZM206.695 67.3214C207.038 67.1201 207.249 66.7929 207.249 66.4154V63.9493C207.249 63.5718 207.038 63.2195 206.695 63.0182L197.543 57.9348C197.2 57.7335 196.778 57.7335 196.435 57.9348L187.203 63.0182C186.86 63.2195 186.649 63.5466 186.649 63.9493V74.0908C186.649 74.4682 186.86 74.8206 187.203 75.0219L196.356 80.0045C196.699 80.1807 197.094 80.1807 197.437 80.0045L202.976 77.0602C203.161 76.9596 203.266 76.7834 203.266 76.6073C203.266 76.4059 203.161 76.2298 202.976 76.1543L193.692 71.071C193.507 70.9703 193.402 70.7941 193.402 70.618V67.422C193.402 67.2207 193.507 67.0446 193.692 66.9691L196.567 65.3837C196.751 65.283 196.962 65.283 197.121 65.3837L199.996 66.9691C200.18 67.0697 200.286 67.2459 200.286 67.422V69.9385C200.286 70.1399 200.391 70.316 200.576 70.3915C200.761 70.4922 200.972 70.4922 201.13 70.3915L206.695 67.3214Z" fill="#404137"/>
<path d="M196.83 66.8433C196.883 66.8182 196.989 66.8182 197.042 66.8433L198.809 67.8248C198.888 67.8499 198.914 67.9254 198.914 68.0009V69.9386C198.914 70.0141 198.862 70.0896 198.809 70.1148L197.042 71.0962C196.962 71.1214 196.883 71.1214 196.83 71.0962L195.063 70.1148C194.984 70.0896 194.958 70.0141 194.958 69.9386V68.0009C194.958 67.9254 194.984 67.8499 195.063 67.8248L196.83 66.8433Z" fill="#689F63"/>
<path d="M146.07 59.5962C146.952 59.1259 148.01 59.1259 148.893 59.5962L155.839 63.2999C156.817 63.8212 157.428 64.8391 157.428 65.9472V72.9528C157.428 74.0609 156.817 75.0788 155.839 75.6001L148.893 79.3038C148.01 79.7741 146.952 79.7741 146.07 79.3038L139.123 75.6001C138.145 75.0788 137.534 74.0609 137.534 72.9528V65.9472C137.534 64.8391 138.145 63.8212 139.123 63.2999L146.07 59.5962Z" fill="#83CD29"/>
<defs>
<filter id="filter0_d_2603_90" x="0" y="0" width="319" height="197" filterUnits="userSpaceOnUse" color-interpolation-filters="sRGB">
<feFlood flood-opacity="0" result="BackgroundImageFix"/>
<feColorMatrix in="SourceAlpha" type="matrix" values="0 0 0 0 0 0 0 0 0 0 0 0 0 0 0 0 0 0 127 0" result="hardAlpha"/>
<feOffset dy="10"/>
<feGaussianBlur stdDeviation="10"/>
<feComposite in2="hardAlpha" operator="out"/>
<feColorMatrix type="matrix" values="0 0 0 0 0 0 0 0 0 0 0 0 0 0 0 0 0 0 0.1 0"/>
<feBlend mode="normal" in2="BackgroundImageFix" result="effect1_dropShadow_2603_90"/>
<feBlend mode="normal" in="SourceGraphic" in2="effect1_dropShadow_2603_90" result="shape"/>
</filter>
</defs>
</svg>
