<svg width="319" height="197" viewBox="0 0 319 197" fill="none" xmlns="http://www.w3.org/2000/svg">
<g filter="url(#filter0_d_4577_89)">
<rect x="20" y="10" width="279" height="157" rx="10" fill="white"/>
</g>
<path d="M116.692 132V119.4H121.876C122.992 119.4 123.946 119.58 124.738 119.94C125.542 120.3 126.16 120.816 126.592 121.488C127.024 122.16 127.24 122.958 127.24 123.882C127.24 124.806 127.024 125.604 126.592 126.276C126.16 126.936 125.542 127.446 124.738 127.806C123.946 128.154 122.992 128.328 121.876 128.328H117.988L119.032 127.266V132H116.692ZM124.936 132L121.75 127.428H124.252L127.456 132H124.936ZM119.032 127.518L117.988 126.402H121.768C122.8 126.402 123.574 126.18 124.09 125.736C124.618 125.292 124.882 124.674 124.882 123.882C124.882 123.078 124.618 122.46 124.09 122.028C123.574 121.596 122.8 121.38 121.768 121.38H117.988L119.032 120.228V127.518ZM132.738 124.638H139.002V126.564H132.738V124.638ZM132.918 130.038H140.028V132H130.578V119.4H139.776V121.362H132.918V130.038ZM141.575 132L147.245 119.4H149.549L155.237 132H152.789L147.911 120.642H148.847L143.987 132H141.575ZM144.185 129.084L144.815 127.248H151.619L152.249 129.084H144.185ZM163.215 132.18C162.255 132.18 161.361 132.024 160.533 131.712C159.717 131.388 159.003 130.938 158.391 130.362C157.791 129.774 157.323 129.084 156.987 128.292C156.651 127.5 156.483 126.636 156.483 125.7C156.483 124.764 156.651 123.9 156.987 123.108C157.323 122.316 157.797 121.632 158.409 121.056C159.021 120.468 159.735 120.018 160.551 119.706C161.367 119.382 162.261 119.22 163.233 119.22C164.265 119.22 165.207 119.4 166.059 119.76C166.911 120.108 167.631 120.63 168.219 121.326L166.707 122.748C166.251 122.256 165.741 121.89 165.177 121.65C164.613 121.398 164.001 121.272 163.341 121.272C162.681 121.272 162.075 121.38 161.523 121.596C160.983 121.812 160.509 122.118 160.101 122.514C159.705 122.91 159.393 123.378 159.165 123.918C158.949 124.458 158.841 125.052 158.841 125.7C158.841 126.348 158.949 126.942 159.165 127.482C159.393 128.022 159.705 128.49 160.101 128.886C160.509 129.282 160.983 129.588 161.523 129.804C162.075 130.02 162.681 130.128 163.341 130.128C164.001 130.128 164.613 130.008 165.177 129.768C165.741 129.516 166.251 129.138 166.707 128.634L168.219 130.074C167.631 130.758 166.911 131.28 166.059 131.64C165.207 132 164.259 132.18 163.215 132.18ZM173.597 132V121.38H169.421V119.4H180.113V121.38H175.937V132H173.597ZM184.375 132.18C183.571 132.18 182.827 132.024 182.143 131.712C181.471 131.4 180.919 130.95 180.487 130.362L181.819 128.76C182.167 129.24 182.545 129.6 182.953 129.84C183.373 130.08 183.829 130.2 184.321 130.2C185.629 130.2 186.283 129.426 186.283 127.878V121.362H181.801V119.4H188.623V127.752C188.623 129.24 188.257 130.35 187.525 131.082C186.805 131.814 185.755 132.18 184.375 132.18ZM196.531 132.18C195.547 132.18 194.605 132.042 193.705 131.766C192.805 131.478 192.091 131.112 191.563 130.668L192.373 128.85C192.877 129.246 193.501 129.576 194.245 129.84C194.989 130.104 195.751 130.236 196.531 130.236C197.191 130.236 197.725 130.164 198.133 130.02C198.541 129.876 198.841 129.684 199.033 129.444C199.225 129.192 199.321 128.91 199.321 128.598C199.321 128.214 199.183 127.908 198.907 127.68C198.631 127.44 198.271 127.254 197.827 127.122C197.395 126.978 196.909 126.846 196.369 126.726C195.841 126.606 195.307 126.468 194.767 126.312C194.239 126.144 193.753 125.934 193.309 125.682C192.877 125.418 192.523 125.07 192.247 124.638C191.971 124.206 191.833 123.654 191.833 122.982C191.833 122.298 192.013 121.674 192.373 121.11C192.745 120.534 193.303 120.078 194.047 119.742C194.803 119.394 195.757 119.22 196.909 119.22C197.665 119.22 198.415 119.316 199.159 119.508C199.903 119.7 200.551 119.976 201.103 120.336L200.365 122.154C199.801 121.818 199.219 121.572 198.619 121.416C198.019 121.248 197.443 121.164 196.891 121.164C196.243 121.164 195.715 121.242 195.307 121.398C194.911 121.554 194.617 121.758 194.425 122.01C194.245 122.262 194.155 122.55 194.155 122.874C194.155 123.258 194.287 123.57 194.551 123.81C194.827 124.038 195.181 124.218 195.613 124.35C196.057 124.482 196.549 124.614 197.089 124.746C197.629 124.866 198.163 125.004 198.691 125.16C199.231 125.316 199.717 125.52 200.149 125.772C200.593 126.024 200.947 126.366 201.211 126.798C201.487 127.23 201.625 127.776 201.625 128.436C201.625 129.108 201.439 129.732 201.067 130.308C200.707 130.872 200.149 131.328 199.393 131.676C198.637 132.012 197.683 132.18 196.531 132.18Z" fill="#4C5768"/>
<g clip-path="url(#clip0_4577_89)">
<path d="M157.767 73.0115C161.409 73.0115 164.362 70.0961 164.362 66.4999C164.362 62.9036 161.409 59.9883 157.767 59.9883C154.124 59.9883 151.171 62.9036 151.171 66.4999C151.171 70.0961 154.124 73.0115 157.767 73.0115Z" fill="#61DAFB"/>
<path d="M158.383 78.1509C175.753 78.1509 189.833 72.66 189.833 65.8867C189.833 59.1134 175.753 53.6226 158.383 53.6226C141.014 53.6226 126.933 59.1134 126.933 65.8867C126.933 72.66 141.014 78.1509 158.383 78.1509Z" stroke="#61DAFB" stroke-width="2.5"/>
<path d="M148.175 71.9803C156.902 86.9029 168.655 96.3333 174.426 93.0437C180.197 89.7541 177.801 74.9902 169.074 60.0676C160.348 45.145 148.595 35.7146 142.823 39.0042C137.052 42.2937 139.448 57.0576 148.175 71.9803Z" stroke="#61DAFB" stroke-width="2.5"/>
<path d="M148.175 60.0676C139.448 74.9902 137.052 89.7541 142.823 93.0437C148.595 96.3333 160.348 86.9028 169.074 71.9802C177.801 57.0576 180.197 42.2937 174.426 39.0041C168.655 35.7146 156.902 45.145 148.175 60.0676Z" stroke="#61DAFB" stroke-width="2.5"/>
</g>
<defs>
<filter id="filter0_d_4577_89" x="0" y="0" width="319" height="197" filterUnits="userSpaceOnUse" color-interpolation-filters="sRGB">
<feFlood flood-opacity="0" result="BackgroundImageFix"/>
<feColorMatrix in="SourceAlpha" type="matrix" values="0 0 0 0 0 0 0 0 0 0 0 0 0 0 0 0 0 0 127 0" result="hardAlpha"/>
<feOffset dy="10"/>
<feGaussianBlur stdDeviation="10"/>
<feComposite in2="hardAlpha" operator="out"/>
<feColorMatrix type="matrix" values="0 0 0 0 0 0 0 0 0 0 0 0 0 0 0 0 0 0 0.1 0"/>
<feBlend mode="normal" in2="BackgroundImageFix" result="effect1_dropShadow_4577_89"/>
<feBlend mode="normal" in="SourceGraphic" in2="effect1_dropShadow_4577_89" result="shape"/>
</filter>
<clipPath id="clip0_4577_89">
<rect width="74" height="65" fill="white" transform="translate(122 34)"/>
</clipPath>
</defs>
</svg>
