<?xml version="1.0" encoding="utf-8"?>
<!-- Generator: Adobe Illustrator 21.1.0, SVG Export Plug-In . SVG Version: 6.00 Build 0)  -->
<svg version="1.1" id="Layer_1" xmlns:sketch="http://www.bohemiancoding.com/sketch/ns"
	 xmlns="http://www.w3.org/2000/svg" xmlns:xlink="http://www.w3.org/1999/xlink" x="0px" y="0px" viewBox="0 0 84 84"
	 style="enable-background:new 0 0 84 84;" xml:space="preserve">
<style type="text/css">
	.st0{fill:#EEEEEE;stroke:#FFFFFF;stroke-width:4;}
	.st1{fill:none;stroke:#F2EDED;}
	.st2{fill:#FFFFFF;}
	.st3{fill:#ED8B00;}
	.st4{fill:#A4D2FC;}
	.st5{fill:#005EB8;}
	.st6{fill:#EEEEEE;}
</style>
<g id="Rectangle-290">
	<g sketch:type="MSShapeGroup">
		<path id="path-1" class="st0" d="M41,1h2c22.1,0,40,17.9,40,40v2c0,22.1-17.9,40-40,40h-2C18.9,83,1,65.1,1,43v-2
			C1,18.9,18.9,1,41,1z"/>
	</g>
	<g>
		<path id="path-1_1_" class="st1" d="M41,1h2c22.1,0,40,17.9,40,40v2c0,22.1-17.9,40-40,40h-2C18.9,83,1,65.1,1,43v-2
			C1,18.9,18.9,1,41,1z"/>
	</g>
</g>
<g>
	<g>
		<g>
			<path class="st2" d="M21.2,32.1h41.7v24.4c0,1.3-1,2.3-2.3,2.3H23.4c-1.3,0-2.3-1-2.3-2.3V32.1z"/>
			<path class="st3" d="M24,25.2h36c1.6,0,2.8,1.3,2.8,2.8v4.2H21.2V28C21.2,26.5,22.4,25.2,24,25.2z"/>
		</g>
	</g>
	<g>
		<circle class="st2" cx="52.8" cy="28.6" r="1"/>
		<circle class="st2" cx="55.7" cy="28.6" r="1"/>
		<circle class="st2" cx="58.6" cy="28.6" r="1"/>
	</g>
	<rect x="25.1" y="28.2" class="st2" width="13.9" height="1"/>
	<g>
		<circle class="st4" cx="42" cy="45.7" r="9"/>
		<path class="st5" d="M51.7,46.5V45h-3.5c0-1.3-0.3-2.4-0.6-3.5c0.8-0.5,1.5-1.2,2.2-1.9l-1.1-1c-0.5,0.6-1,1.1-1.6,1.4
			c-1-2.1-2.5-3.8-4.5-4.7L42.2,36h-0.5l-0.3-0.7c-2,1-3.6,2.6-4.5,4.7c-0.6-0.4-1.2-0.9-1.7-1.5l-1.1,1c0.7,0.8,1.4,1.4,2.2,1.9
			c-0.3,1.1-0.5,2.3-0.6,3.5h-3.5v1.5h3.5c0,1.3,0.3,2.4,0.6,3.5c-0.8,0.5-1.6,1.2-2.2,1.9l1.1,1c0.5-0.6,1.1-1.1,1.7-1.5
			c1,2.1,2.5,3.8,4.6,4.7l0.3-0.7h0.5l0.3,0.7c2-1,3.6-2.6,4.5-4.7c0.6,0.4,1.2,0.9,1.6,1.4l1.1-1c-0.6-0.7-1.4-1.4-2.2-1.9
			c0.3-1.1,0.6-2.3,0.6-3.5L51.7,46.5L51.7,46.5L51.7,46.5z M46.8,45h-4v-1.9c1.3-0.1,2.5-0.4,3.6-0.9C46.6,43,46.7,44,46.8,45z
			 M45.8,40.8c-1,0.5-2,0.7-3.1,0.8v-4.5C44.1,38,45.1,39.2,45.8,40.8z M41.3,37.1v4.5c-1.1-0.1-2.1-0.4-3.1-0.8
			C38.9,39.2,39.9,38,41.3,37.1z M37.7,42.2c1.1,0.5,2.3,0.8,3.6,0.9V45h-4C37.3,44,37.4,43.1,37.7,42.2z M37.2,46.5h4v1.9
			c-1.3,0.1-2.5,0.4-3.6,0.9C37.4,48.4,37.3,47.4,37.2,46.5z M38.2,50.6c1-0.4,2-0.7,3.1-0.8v4.5C39.9,53.4,38.9,52.2,38.2,50.6z
			 M42.7,54.3v-4.5c1.1,0.1,2.1,0.4,3.1,0.8C45.1,52.2,44.1,53.4,42.7,54.3z M46.3,49.2c-1.1-0.5-2.3-0.8-3.6-0.9v-1.9h4
			C46.7,47.4,46.6,48.4,46.3,49.2z"/>
		<g>
			<path class="st5" d="M42,56.2c-5.8,0-10.4-4.7-10.4-10.4S36.2,35.3,42,35.3S52.4,40,52.4,45.7S47.8,56.2,42,56.2z M42,36.7
				c-5,0-9,4-9,9s4,9,9,9s9-4,9-9S47,36.7,42,36.7z"/>
		</g>
	</g>
	<g>
		<path class="st6" d="M52.8,52.3c-0.6,1.1-1.4,2-2.4,2.8h9.2v-2.8H52.8z"/>
		<path class="st6" d="M31.2,52.3h-6.8v2.8h9.2C32.6,54.4,31.8,53.4,31.2,52.3z"/>
	</g>
	<g>
		<path class="st6" d="M54.7,46.8c-0.1,1-0.3,1.9-0.6,2.8h5.5v-2.8H54.7z"/>
		<path class="st6" d="M29.3,46.8h-5v2.8h5.5C29.6,48.7,29.4,47.7,29.3,46.8z"/>
	</g>
	<g>
		<path class="st6" d="M30.1,41.2h-5.8V44h5C29.5,43,29.8,42.1,30.1,41.2z"/>
		<path class="st6" d="M53.9,41.2c0.3,0.9,0.6,1.8,0.7,2.8h5v-2.8H53.9z"/>
	</g>
	<g>
		<path class="st6" d="M34.3,35.6h-10v2.8h7.2C32.4,37.4,33.3,36.4,34.3,35.6z"/>
		<path class="st6" d="M49.7,35.6c1,0.8,2,1.8,2.7,2.8h7.2v-2.8H49.7z"/>
	</g>
</g>
</svg>
