<?xml version="1.0" encoding="utf-8"?>
<!-- Generator: Adobe Illustrator 21.1.0, SVG Export Plug-In . SVG Version: 6.00 Build 0)  -->
<svg version="1.1" id="Layer_1" xmlns:sketch="http://www.bohemiancoding.com/sketch/ns"
	 xmlns="http://www.w3.org/2000/svg" xmlns:xlink="http://www.w3.org/1999/xlink" x="0px" y="0px" viewBox="0 0 84 84"
	 style="enable-background:new 0 0 84 84;" xml:space="preserve">
<style type="text/css">
	.st0{fill:#EEEEEE;stroke:#FFFFFF;stroke-width:4;}
	.st1{fill:none;stroke:#F2EDED;}
	.st2{fill:#0383DB;}
	.st3{fill:#005EB8;}
	.st4{fill:#FFFFFF;}
	.st5{fill:none;stroke:#123155;stroke-width:2;stroke-miterlimit:10;}
	.st6{fill:#6FC4F7;}
	.st7{fill:none;stroke:#0383DB;stroke-width:2;stroke-miterlimit:10;}
	.st8{fill:#FBB040;}
	.st9{fill:none;stroke:#ED8B00;stroke-width:2.5;stroke-miterlimit:10;}
</style>
<g id="Rectangle-290">
	<g sketch:type="MSShapeGroup">
		<path id="path-1" class="st0" d="M41,1h2c22.1,0,40,17.9,40,40v2c0,22.1-17.9,40-40,40h-2C18.9,83,1,65.1,1,43v-2
			C1,18.9,18.9,1,41,1z"/>
	</g>
	<g>
		<path id="path-1_1_" class="st1" d="M41,1h2c22.1,0,40,17.9,40,40v2c0,22.1-17.9,40-40,40h-2C18.9,83,1,65.1,1,43v-2
			C1,18.9,18.9,1,41,1z"/>
	</g>
</g>
<g>
	<g>
		<g>
			<path class="st2" d="M56.8,56.2C63,56.2,68,51.2,68,45c0-5.8-4.4-10.5-10-11.1c-1.9-5.8-7.4-10-13.8-10c-6.6,0-12.2,4.4-14,10.4
				c-1-0.3-2-0.4-3-0.4C21,33.8,16,38.8,16,45s5,11.2,11.2,11.2L56.8,56.2L56.8,56.2z"/>
		</g>
		<g>
			<path class="st3" d="M58,33.9c-1.9-5.8-7.4-10-13.8-10c0,0,0,0-0.1,0v32.3h12.8C63,56.2,68,51.2,68,45C68,39.2,63.6,34.5,58,33.9
				L58,33.9z"/>
		</g>
	</g>
</g>
<g>
	<g>
		<path class="st4" d="M31.1,50.6l0.2,0.6l-0.6,1.4l1,1.2l1.4-0.4l0.5,0.3l0.5,1.4l1.6,0.1l0.7-1.3l0.6-0.2l1.4,0.6l1.2-1l-0.4-1.4
			l0.3-0.5l1.4-0.6l0.1-1.6l-1.3-0.7l-0.2-0.5l0.6-1.4l-1-1.2l-1.4,0.4l-0.5-0.3l-0.5-1.4L35.1,44l-0.7,1.3l-0.5,0.2l-1.4-0.6
			l-1.2,1l0.4,1.4l-0.3,0.5L30,48.3l-0.1,1.6L31.1,50.6z"/>
		<g id="XMLID_9_">
			<g>
				
					<ellipse transform="matrix(6.870002e-02 -0.9976 0.9976 6.870002e-02 -16.4088 81.5157)" class="st4" cx="35.5" cy="49.5" rx="2.1" ry="2.1"/>
			</g>
			<g>
				
					<ellipse transform="matrix(6.930556e-02 -0.9976 0.9976 6.930556e-02 -16.4282 81.4842)" class="st5" cx="35.5" cy="49.5" rx="2.1" ry="2.1"/>
			</g>
		</g>
	</g>
	<g>
		<path class="st6" d="M43.3,53.7l0.2,0.6l-0.6,1.4l1,1.2l1.4-0.4l0.5,0.3l0.5,1.4l1.6,0.1l0.7-1.3l0.6-0.2l1.4,0.6l1.2-1l-0.4-1.4
			l0.3-0.5l1.4-0.6l0.1-1.6l-1.3-0.7L51.7,51l0.6-1.4l-1-1.2l-1.4,0.4l-0.5-0.3l-0.5-1.4l-1.6-0.1l-0.7,1.3l-0.5,0.2l-1.4-0.6
			l-1.2,1l0.4,1.4l-0.3,0.5l-1.4,0.5L42,53L43.3,53.7z"/>
		<g id="XMLID_10_">
			<g>
				
					<ellipse transform="matrix(6.870002e-02 -0.9976 0.9976 6.870002e-02 -8.2145 96.5124)" class="st4" cx="47.6" cy="52.7" rx="2.1" ry="2.1"/>
			</g>
			<g>
				
					<ellipse transform="matrix(6.930556e-02 -0.9976 0.9976 6.930556e-02 -8.2411 96.4785)" class="st7" cx="47.6" cy="52.7" rx="2.1" ry="2.1"/>
			</g>
		</g>
	</g>
	<g>
		<path class="st8" d="M38.5,39.6l0.3,0.8l-0.7,2.1l1.7,1.6l2-0.8l0.8,0.3l1,2l2.3-0.1l0.8-2l0.8-0.4l2.1,0.7l1.6-1.7l-0.8-2
			l0.3-0.8l1.9-1l-0.1-2.3l-2-0.8l-0.3-0.8l0.7-2.1l-1.7-1.6l-2,0.8l-0.8-0.3l-1-1.9l-2.3,0.1l-0.8,2l-0.8,0.3L39.4,31l-1.6,1.7
			l0.8,2l-0.3,0.8l-1.9,1l0.1,2.3L38.5,39.6z"/>
		<g id="XMLID_7_">
			<g>
				<g>
					
						<ellipse transform="matrix(0.9992 -4.073114e-02 4.073114e-02 0.9992 -1.4859 1.8466)" class="st4" cx="44.6" cy="37.4" rx="3.1" ry="3.1"/>
				</g>
				<g>
					
						<ellipse transform="matrix(0.9992 -4.075162e-02 4.075162e-02 0.9992 -1.4866 1.8475)" class="st9" cx="44.6" cy="37.4" rx="3.1" ry="3.1"/>
				</g>
			</g>
		</g>
	</g>
</g>
</svg>
