<?xml version="1.0" encoding="utf-8"?>
<!-- Generator: Adobe Illustrator 21.1.0, SVG Export Plug-In . SVG Version: 6.00 Build 0)  -->
<svg version="1.1" id="Layer_1" xmlns:sketch="http://www.bohemiancoding.com/sketch/ns"
	 xmlns="http://www.w3.org/2000/svg" xmlns:xlink="http://www.w3.org/1999/xlink" x="0px" y="0px" viewBox="0 0 84 84"
	 style="enable-background:new 0 0 84 84;" xml:space="preserve">
<style type="text/css">
	.st0{fill:#EEEEEE;stroke:#FFFFFF;stroke-width:4;}
	.st1{fill:none;stroke:#F2EDED;}
	.st2{fill:#005EB8;}
	.st3{fill:#123155;}
	.st4{fill:#FFFFFF;}
	.st5{fill:#A4D2FC;}
	.st6{fill:#FBB040;}
	.st7{fill:#ED8B00;}
</style>
<g id="Rectangle-290">
	<g sketch:type="MSShapeGroup">
		<path id="path-1" class="st0" d="M41,1h2c22.1,0,40,17.9,40,40v2c0,22.1-17.9,40-40,40h-2C18.9,83,1,65.1,1,43v-2
			C1,18.9,18.9,1,41,1z"/>
	</g>
	<g>
		<path id="path-1_1_" class="st1" d="M41,1h2c22.1,0,40,17.9,40,40v2c0,22.1-17.9,40-40,40h-2C18.9,83,1,65.1,1,43v-2
			C1,18.9,18.9,1,41,1z"/>
	</g>
</g>
<g>
	<g>
		<path class="st2" d="M32.5,59.4v1.8h20.3v-1.8l-3.7-2.5H36.2L32.5,59.4z"/>
		<rect x="36.2" y="51.3" class="st3" width="12.9" height="5.6"/>
		<path class="st2" d="M60.2,26.1H23.8c-0.7,0-1.2,0.6-1.2,1.2v24c0,0.7,0.6,1.2,1.2,1.2h36.3c0.7,0,1.2-0.5,1.2-1.2v-24
			C61.4,26.7,60.8,26.1,60.2,26.1L60.2,26.1z M58.3,50.8h-3.1v-1.2h3.1V50.8z"/>
		<g id="XMLID_7_">
			<g>
				<rect x="25.7" y="29.2" class="st4" width="32.6" height="19.1"/>
			</g>
			<g>
			</g>
		</g>
	</g>
</g>
<g id="XMLID_8_">
	<g>
		<rect x="25.7" y="29.2" class="st5" width="32.6" height="4.5"/>
	</g>
	<g>
	</g>
</g>
<g>
	<path class="st6" d="M55.9,44.4l-2.2-2.2l1.6-0.9c0.1-0.1,0.2-0.2,0.2-0.4c0-0.1-0.1-0.3-0.2-0.3l-7.1-2.8c-0.1-0.1-0.3,0-0.4,0.1
		c-0.1,0.1-0.1,0.3-0.1,0.4l2.8,7.1c0.1,0.1,0.2,0.2,0.3,0.2s0.3-0.1,0.4-0.2l0.9-1.6l2.2,2.2c0.1,0.1,0.2,0.1,0.3,0.1
		s0.2,0,0.3-0.1l1.1-1.1C56,44.8,56,44.6,55.9,44.4L55.9,44.4z"/>
	<path class="st7" d="M45.5,34.7c-0.3-0.3-0.7-0.3-1,0s-0.3,0.7,0,1l1.5,1.5c0.1,0.1,0.3,0.2,0.5,0.2s0.3-0.1,0.5-0.2
		c0.3-0.3,0.3-0.7,0-1L45.5,34.7z"/>
	<path class="st7" d="M46,39.4c0-0.4-0.3-0.7-0.7-0.7h-2.1c-0.4,0-0.7,0.3-0.7,0.7s0.3,0.7,0.7,0.7h2.1C45.7,40,46,39.7,46,39.4
		L46,39.4z"/>
	<path class="st7" d="M45.8,41.4l-1.5,1.5c-0.3,0.3-0.3,0.7,0,1c0.1,0.1,0.3,0.2,0.5,0.2s0.3-0.1,0.5-0.2l1.5-1.5
		c0.3-0.3,0.3-0.7,0-1C46.4,41.2,46,41.2,45.8,41.4L45.8,41.4z"/>
	<path class="st7" d="M49.2,36.2c0.4,0,0.7-0.3,0.7-0.7v-2.1c0-0.4-0.3-0.7-0.7-0.7s-0.7,0.3-0.7,0.7v2.1
		C48.5,35.9,48.8,36.2,49.2,36.2L49.2,36.2z"/>
	<path class="st7" d="M51.8,37.1c0.2,0,0.3-0.1,0.5-0.2l1.5-1.5c0.3-0.3,0.3-0.7,0-1s-0.7-0.3-1,0l-1.5,1.5c-0.3,0.3-0.3,0.7,0,1
		C51.4,37,51.6,37.1,51.8,37.1L51.8,37.1z"/>
</g>
</svg>
